<?xml version="1.0" encoding="UTF-8" standalone="no"?>
<svg width="236px" height="47px" viewBox="0 0 236 47" version="1.1" xmlns="http://www.w3.org/2000/svg" xmlns:xlink="http://www.w3.org/1999/xlink" xmlns:sketch="http://www.bohemiancoding.com/sketch/ns">
    <!-- Generator: Sketch 3.0 (7573) - http://www.bohemiancoding.com/sketch -->
    <title>logo</title>
    <description>Created with Sketch.</description>
    <defs></defs>
    <g id="Page-1" stroke="none" stroke-width="1" fill="none" fill-rule="evenodd" sketch:type="MSPage">
        <g id="ArticleView" sketch:type="MSLayerGroup" transform="translate(-243.000000, -71.000000)" fill="#0A0B09">
            <path d="M360.966,85.81 C362.989,85.662 366.188,83.791 366.231,80.208 C366.274,76.628 363.817,74.347 359.888,74.474 C357.845,74.54 354.378,76.374 354.503,80.477 C354.63,84.58 358.94,85.959 360.966,85.81 L360.966,85.81 Z M356.054,88.273 L355.364,106.863 C355.364,106.863 360.548,107.601 366.839,106.996 L366.493,88.219 C361.267,88.975 356.054,88.273 356.054,88.273 L356.054,88.273 Z M338.888,101.4 C335.958,100.152 336.864,96.411 339.356,95.687 C340.995,95.211 342.739,95.287 343.753,95.395 C343.761,96.105 343.769,96.777 343.788,97.354 C343.825,98.305 343.868,99.319 343.933,100.337 C342.812,101.156 340.827,102.227 338.888,101.4 L338.888,101.4 Z M352.087,89.31 C352.116,83.292 348.345,78.343 341.47,78.377 C334.597,78.413 331.083,81.433 328.616,83.283 C328.616,83.283 330.427,87.208 332.657,89.706 C332.657,89.706 336.981,85.708 341.075,86.012 C342.409,86.111 343.653,87.995 343.376,89.787 C341.538,89.566 334.37,89.062 331.005,94.086 C327.12,99.875 330.384,106.3 335.005,107.365 C338.995,108.281 342.784,106.654 344.495,105.347 C344.661,106.217 344.862,106.973 345.11,107.541 C349.28,106.302 353.708,105.524 353.708,105.524 C352.579,100.53 352.044,97.852 352.087,89.31 L352.087,89.31 Z M316.325,71.193 L316.397,107.77 L326.919,108.063 L325.692,71.137 C321.354,70.845 316.325,71.193 316.325,71.193 L316.325,71.193 Z M301.64,94.572 C301.396,91.375 302.735,89.531 305.214,89.349 C308.071,89.137 309.706,90.814 309.706,90.814 C309.706,90.814 311.339,88.417 313.919,85.59 C313.919,85.59 311.685,81.799 305.854,81.099 C300.026,80.4 292.128,85.75 292.2,93.931 C292.271,102.116 297.421,108.136 303.655,108.046 C310.228,107.948 314.47,104.746 314.47,104.746 C314.47,104.746 313.118,99.859 310.62,97.231 C304.866,101.124 301.884,97.77 301.64,94.572 L301.64,94.572 Z M293.153,82.719 C289.354,80.055 284.772,78.115 284.772,78.115 L279.835,87.263 L276.022,79.172 C272.036,81.603 267.435,82.996 267.435,82.996 L273.983,93.663 L266.868,103.235 C266.868,103.235 270.815,105.452 274.968,108.175 L279.917,99.797 L285.481,108.126 C285.481,108.126 290.132,106.327 293.44,104.292 L285.771,93.456 L293.153,82.719 L293.153,82.719 Z M256.624,85.741 C260.751,85.945 260.296,90.438 260.296,90.438 C256.95,90.174 252.245,90.256 252.245,90.256 C252.245,90.256 253.146,85.57 256.624,85.741 L256.624,85.741 Z M252.239,95.445 C252.239,95.445 259.81,95.632 268.015,96.432 C268.015,96.432 269.247,88.569 265.874,83.116 C262.501,77.658 252.288,77.482 247.784,82.343 C243.284,87.206 241.962,94.221 245.468,101.814 C248.974,109.405 260.009,109.402 265.491,106.223 C264.011,102.323 262.31,98.957 262.31,98.957 C262.31,98.957 252.472,103.313 252.239,95.445 L252.239,95.445 Z M417.626,95.149 C415.519,94.889 411.847,96.156 411.067,99.832 C410.292,103.501 412.354,106.353 416.419,107.027 C418.53,107.374 422.476,106.199 423.183,101.956 C423.896,97.71 419.741,95.41 417.626,95.149 L417.626,95.149 Z M398.909,80.014 C396.001,80.329 393.267,82.156 392.454,82.854 C390.331,79.493 386.784,78.343 383.692,79.01 C381.981,79.381 380.267,80.685 379.362,81.954 C378.827,80.042 378.208,79.448 378.208,79.448 C373.741,80.275 369.442,81.71 369.442,81.71 C369.442,81.71 370.278,84.5 370.421,86.936 C370.565,89.371 370.183,107.042 370.183,107.042 C370.183,107.042 375.399,106.714 380.384,107.221 C380.384,107.221 380.175,97.023 380.14,89.48 C380.702,86.334 384.849,87.229 384.866,90.525 C384.888,93.83 384.62,106.634 384.62,106.634 C384.62,106.634 389.169,106.272 394.181,106.69 C394.181,106.69 394.421,97.347 393.892,90.13 C393.892,86.284 398.823,86.451 398.909,89.795 C398.964,92.114 398.7,106.973 398.7,106.973 C398.7,106.973 403.56,106.465 408.259,107.03 C408.259,107.03 408.747,95.127 408.021,87.873 C407.296,80.62 401.999,79.68 398.909,80.014 L398.909,80.014 Z M460.778,92.523 C458.554,92.955 457.464,96.14 459.915,97.459 C461.54,98.332 463.351,97.559 464.392,96.933 C464.417,96.041 464.454,95.154 464.501,94.324 C464.53,93.821 464.577,93.237 464.628,92.617 C463.757,92.443 462.237,92.239 460.778,92.523 L460.778,92.523 Z M464.847,103.297 C464.677,102.784 464.562,102.109 464.487,101.338 C462.894,102.341 459.468,103.457 456.062,102.345 C452.13,101.053 449.792,95.2 453.63,90.468 C456.962,86.36 463.161,87.367 464.743,87.705 C465.126,86.168 464.19,84.428 463.04,84.236 C459.497,83.647 455.419,86.787 455.419,86.787 C453.675,84.436 452.405,80.875 452.405,80.875 C454.7,79.458 458.001,77.108 463.987,77.622 C469.978,78.136 472.866,82.742 472.364,87.979 C471.651,95.413 471.903,97.785 472.493,102.221 C472.493,102.221 468.575,102.548 464.847,103.297 L464.847,103.297 Z M440.761,103.536 C434.796,103.575 430.005,98.065 429.997,90.239 C429.993,82.417 437.583,77.362 443.153,78.073 C448.718,78.787 450.831,82.429 450.831,82.429 C448.339,85.111 447.05,86.985 447.05,86.985 C447.05,86.985 445.147,85.348 442.413,85.528 C440.048,85.687 438.433,87.897 438.638,90.957 C438.849,94.017 442.312,97.746 447.841,94.069 C449.628,96.384 451.212,100.747 451.212,100.747 C451.212,100.747 447.042,103.493 440.761,103.536 L440.761,103.536 Z M477.511,72.518 L424.239,75.002 L425.142,84.385 L426.188,106.807 L431.618,106.833 L429.675,116.532 L439.323,106.869 L478.472,107.053 L477.511,72.518 L477.511,72.518 Z" id="logo" sketch:type="MSShapeGroup"></path>
        </g>
    </g>
</svg>