<?xml version="1.0" encoding="UTF-8" standalone="no"?>
<svg width="166px" height="33px" viewBox="0 0 166 33" version="1.1" xmlns="http://www.w3.org/2000/svg" xmlns:xlink="http://www.w3.org/1999/xlink" xmlns:sketch="http://www.bohemiancoding.com/sketch/ns">
    <!-- Generator: Sketch 3.0.2 (7799) - http://www.bohemiancoding.com/sketch -->
    <title>logo</title>
    <description>Created with Sketch.</description>
    <defs></defs>
    <g id="Page-1" stroke="none" stroke-width="1" fill="none" fill-rule="evenodd" sketch:type="MSPage">
        <g id="Homepage" sketch:type="MSLayerGroup" transform="translate(-240.000000, -18.000000)" fill="#FFFFFF">
            <path d="M323.12,28.912 C324.541,28.808 326.787,27.494 326.818,24.979 C326.848,22.465 325.123,20.863 322.363,20.952 C320.929,20.999 318.495,22.286 318.583,25.167 C318.672,28.048 321.699,29.017 323.12,28.912 L323.12,28.912 Z M319.671,30.642 L319.188,43.693 C319.188,43.693 322.827,44.211 327.245,43.787 L327,30.603 C323.332,31.134 319.671,30.642 319.671,30.642 L319.671,30.642 Z M307.619,39.857 C305.562,38.981 306.199,36.355 307.948,35.847 C309.098,35.513 310.324,35.565 311.035,35.641 C311.041,36.141 311.045,36.612 311.06,37.017 C311.086,37.685 311.115,38.396 311.162,39.111 C310.374,39.687 308.981,40.437 307.619,39.857 L307.619,39.857 Z M316.887,31.369 C316.907,27.143 314.259,23.669 309.432,23.693 C304.605,23.719 302.138,25.838 300.407,27.137 C300.407,27.137 301.679,29.894 303.244,31.646 C303.244,31.646 306.281,28.84 309.156,29.053 C310.092,29.123 310.965,30.446 310.771,31.703 C309.48,31.549 304.447,31.195 302.084,34.723 C299.356,38.788 301.648,43.298 304.893,44.046 C307.695,44.689 310.355,43.547 311.556,42.63 C311.671,43.24 311.813,43.771 311.988,44.169 C314.916,43.299 318.025,42.753 318.025,42.753 C317.232,39.247 316.855,37.367 316.887,31.369 L316.887,31.369 Z M291.776,18.648 L291.827,44.33 L299.215,44.537 L298.354,18.609 C295.309,18.404 291.776,18.648 291.776,18.648 L291.776,18.648 Z M281.465,35.063 C281.294,32.819 282.235,31.525 283.975,31.396 C285.981,31.248 287.129,32.425 287.129,32.425 C287.129,32.425 288.275,30.742 290.088,28.757 C290.088,28.757 288.519,26.096 284.426,25.604 C280.333,25.113 274.788,28.869 274.837,34.614 C274.887,40.36 278.504,44.588 282.881,44.524 C287.496,44.455 290.475,42.208 290.475,42.208 C290.475,42.208 289.525,38.776 287.772,36.932 C283.732,39.664 281.636,37.309 281.465,35.063 L281.465,35.063 Z M275.508,26.742 C272.841,24.871 269.622,23.509 269.622,23.509 L266.156,29.933 L263.479,24.251 C260.681,25.958 257.45,26.936 257.45,26.936 L262.048,34.426 L257.052,41.146 C257.052,41.146 259.823,42.703 262.739,44.615 L266.214,38.733 L270.121,44.58 C270.121,44.58 273.386,43.317 275.71,41.888 L270.324,34.28 L275.508,26.742 L275.508,26.742 Z M249.859,28.863 C252.757,29.006 252.438,32.161 252.438,32.161 C250.087,31.976 246.786,32.034 246.786,32.034 C246.786,32.034 247.416,28.743 249.859,28.863 L249.859,28.863 Z M246.78,35.677 C246.78,35.677 252.097,35.809 257.857,36.37 C257.857,36.37 258.722,30.849 256.354,27.021 C253.986,23.188 246.815,23.064 243.653,26.478 C240.493,29.892 239.564,34.817 242.027,40.148 C244.487,45.479 252.235,45.476 256.085,43.244 C255.046,40.506 253.852,38.143 253.852,38.143 C253.852,38.143 246.944,41.201 246.78,35.677 L246.78,35.677 Z M362.905,35.469 C361.423,35.286 358.845,36.176 358.299,38.756 C357.754,41.333 359.203,43.335 362.056,43.809 C363.538,44.053 366.308,43.228 366.805,40.248 C367.305,37.268 364.388,35.652 362.905,35.469 L362.905,35.469 Z M349.762,24.842 C347.719,25.063 345.8,26.347 345.229,26.836 C343.739,24.477 341.249,23.669 339.077,24.138 C337.876,24.398 336.672,25.313 336.038,26.204 C335.662,24.862 335.227,24.445 335.227,24.445 C332.09,25.025 329.072,26.033 329.072,26.033 C329.072,26.033 329.66,27.992 329.759,29.702 C329.861,31.412 329.593,43.82 329.593,43.82 C329.593,43.82 333.255,43.589 336.754,43.945 C336.754,43.945 336.608,36.785 336.584,31.488 C336.978,29.28 339.889,29.908 339.902,32.223 C339.917,34.542 339.729,43.533 339.729,43.533 C339.729,43.533 342.923,43.279 346.442,43.572 C346.442,43.572 346.611,37.013 346.239,31.944 C346.239,29.244 349.702,29.362 349.762,31.71 C349.8,33.337 349.614,43.771 349.614,43.771 C349.614,43.771 353.028,43.414 356.327,43.811 C356.327,43.811 356.669,35.454 356.159,30.36 C355.65,25.267 351.932,24.608 349.762,24.842 L349.762,24.842 Z M393.202,33.625 C391.64,33.929 390.875,36.164 392.596,37.091 C393.737,37.704 395.008,37.161 395.739,36.722 C395.756,36.095 395.782,35.472 395.816,34.89 C395.836,34.537 395.87,34.127 395.905,33.691 C395.293,33.569 394.227,33.426 393.202,33.625 L393.202,33.625 Z M396.058,41.19 C395.939,40.83 395.859,40.356 395.805,39.815 C394.687,40.519 392.283,41.301 389.89,40.521 C387.13,39.614 385.489,35.505 388.183,32.183 C390.523,29.298 394.875,30.005 395.986,30.242 C396.255,29.163 395.597,27.941 394.79,27.806 C392.303,27.393 389.439,29.598 389.439,29.598 C388.214,27.947 387.322,25.447 387.322,25.447 C388.935,24.452 391.251,22.802 395.456,23.162 C399.661,23.523 401.689,26.758 401.337,30.435 C400.836,35.654 401.013,37.32 401.427,40.435 C401.427,40.435 398.676,40.664 396.058,41.19 L396.058,41.19 Z M379.147,41.357 C374.959,41.385 371.595,37.516 371.589,32.021 C371.586,26.53 376.916,22.979 380.826,23.479 C384.734,23.981 386.217,26.538 386.217,26.538 C384.468,28.421 383.563,29.737 383.563,29.737 C383.563,29.737 382.228,28.587 380.307,28.713 C378.646,28.825 377.513,30.377 377.657,32.525 C377.804,34.674 380.236,37.292 384.117,34.71 C385.373,36.336 386.485,39.399 386.485,39.399 C386.485,39.399 383.557,41.327 379.147,41.357 L379.147,41.357 Z M404.95,19.579 L367.547,21.324 L368.181,27.911 L368.916,43.654 L372.728,43.672 L371.364,50.482 L378.138,43.698 L405.625,43.827 L404.95,19.579 L404.95,19.579 Z" id="logo" sketch:type="MSShapeGroup"></path>
        </g>
    </g>
</svg>