<?xml version="1.0" encoding="UTF-8" standalone="no"?>
<svg width="14px" height="14px" viewBox="0 0 14 14" version="1.1" xmlns="http://www.w3.org/2000/svg" xmlns:xlink="http://www.w3.org/1999/xlink" xmlns:sketch="http://www.bohemiancoding.com/sketch/ns">
    <!-- Generator: Sketch 3.0 (7573) - http://www.bohemiancoding.com/sketch -->
    <title>icon-search</title>
    <description>Created with Sketch.</description>
    <defs></defs>
    <g id="Page-1" stroke="none" stroke-width="1" fill="none" fill-rule="evenodd" sketch:type="MSPage">
        <g id="General-Icons" sketch:type="MSArtboardGroup" transform="translate(-1.000000, -1.000000)" fill="#3A3B38">
            <path d="M9.9975,9.211 C8.0475,9.211 6.4675,7.632 6.4675,5.684 C6.4675,3.735 8.0475,2.156 9.9975,2.156 C11.9475,2.156 13.5175,3.735 13.5175,5.684 C13.5175,7.632 11.9475,9.211 9.9975,9.211 L9.9975,9.211 Z M9.9875,1 C7.3875,1 5.2775,3.106 5.2775,5.703 C5.2775,6.913 5.7475,8.012 6.4975,8.845 L5.0675,10.267 C4.7075,10.059 4.2475,10.092 3.9375,10.401 L1.2775,13.061 C0.9075,13.428 0.9075,14.024 1.2775,14.392 L1.6075,14.724 C1.9775,15.091 2.5775,15.091 2.9375,14.724 L5.5975,12.064 C5.9075,11.755 5.9475,11.293 5.7375,10.933 L7.1875,9.478 C7.9675,10.059 8.9375,10.406 9.9875,10.406 C12.5875,10.406 14.6875,8.301 14.6875,5.703 C14.6875,3.106 12.5875,1 9.9875,1 L9.9875,1 Z" id="icon-search" sketch:type="MSShapeGroup"></path>
        </g>
    </g>
</svg>