<?xml version="1.0" encoding="UTF-8" standalone="no"?>
<svg width="20px" height="20px" viewBox="0 0 20 20" version="1.1" xmlns="http://www.w3.org/2000/svg" xmlns:xlink="http://www.w3.org/1999/xlink" xmlns:sketch="http://www.bohemiancoding.com/sketch/ns">
    <!-- Generator: Sketch 3.0 (7573) - http://www.bohemiancoding.com/sketch -->
    <title>icon-arrowRight-white</title>
    <description>Created with Sketch.</description>
    <defs></defs>
    <g id="Page-1" stroke="none" stroke-width="1" fill="none" fill-rule="evenodd" sketch:type="MSPage">
        <g id="White-Icons" sketch:type="MSArtboardGroup" transform="translate(-28.000000, -2.000000)" fill="#FFFFFF">
            <path d="M37.99612,21.7011063 L37.99612,21.4009187 C35.4004139,21.4009187 33.0530264,20.3489681 31.3523021,18.6474736 C29.6515779,16.9446853 28.6001035,14.5975286 28.6001035,12.000647 C28.6001035,9.40247137 29.6515779,7.05531474 31.3523021,5.35252636 C33.0530264,3.65103189 35.4004139,2.59908132 37.99612,2.59908132 C40.5957062,2.59908132 42.944387,3.65103189 44.6464046,5.35252636 C46.3484221,7.05531474 47.3998965,9.40247137 47.3998965,12.000647 C47.3998965,14.5975286 46.3484221,16.9446853 44.6464046,18.6474736 C42.944387,20.3489681 40.5957062,21.4009187 37.99612,21.4009187 L37.99612,22 C43.5237972,22 48,17.523064 48,12.000647 C48,6.47693602 43.5237972,2 37.99612,2 C32.4762028,2 28,6.47693602 28,12.000647 C28,17.523064 32.4762028,22 37.99612,22 L37.99612,21.7011063 Z M37.8014,17 L35,17 L39.2,12 L35,7 L37.8014,7 L42,12 L37.8014,17 Z" id="icon-arrowRight-white" sketch:type="MSShapeGroup"></path>
        </g>
    </g>
</svg>